HIERARCHY
ROOT Hips
{
  OFFSET 5.84602e-005 68.8428 3.50346
  CHANNELS 6 Xposition Yposition Zposition Zrotation Xrotation Yrotation
  JOINT Spine
  {
    OFFSET 0 8.597 -4.6522
    CHANNELS 3 Zrotation Xrotation Yrotation
    JOINT Spine1
    {
      OFFSET 0 7.8454 0.4098
      CHANNELS 3 Zrotation Xrotation Yrotation
      JOINT Spine2
      {
        OFFSET 0 9.7078 -2.1609
        CHANNELS 3 Zrotation Xrotation Yrotation
        JOINT Neck
        {
          OFFSET 0 21.8761 -0.4549
          CHANNELS 3 Zrotation Xrotation Yrotation
          JOINT Head
          {
            OFFSET 0 12.3537 3.3602
            CHANNELS 3 Zrotation Xrotation Yrotation
            End Site
            {
              OFFSET 0.0001 18.9506 0.5657
            }
          }
        }
        JOINT LeftShoulder
        {
          OFFSET 2.2086 21.1115 7.2329
          CHANNELS 3 Zrotation Xrotation Yrotation
          JOINT LeftArm
          {
            OFFSET 13.1193 3.0282 -4.8998
            CHANNELS 3 Zrotation Xrotation Yrotation
            JOINT LeftForeArm
            {
              OFFSET 27.4081 -0.0973053 -0.2375
              CHANNELS 3 Zrotation Xrotation Yrotation
              JOINT LeftHand
              {
                OFFSET 22.8641 0.0662994 -0.1369
                CHANNELS 3 Zrotation Xrotation Yrotation
                JOINT LeftHandIndex1
                {
                  OFFSET 8.8614 0.775009 2.4612
                  CHANNELS 3 Zrotation Xrotation Yrotation
                  JOINT LeftHandIndex2
                  {
                    OFFSET 3.3146 -0.808304 0.5841
                    CHANNELS 3 Zrotation Xrotation Yrotation
                    JOINT LeftHandIndex3
                    {
                      OFFSET 2.2628 -0.552002 0.3989
                      CHANNELS 3 Zrotation Xrotation Yrotation
                      End Site
                      {
                        OFFSET 1.6102 -0.4807 0.2612
                      }
                    }
                  }
                }
                JOINT LeftHandMiddle1
                {
                  OFFSET 8.9937 0.895004 0.2143
                  CHANNELS 3 Zrotation Xrotation Yrotation
                  JOINT LeftHandMiddle2
                  {
                    OFFSET 4.0984 0.0113983 -0.0242
                    CHANNELS 3 Zrotation Xrotation Yrotation
                    JOINT LeftHandMiddle3
                    {
                      OFFSET 2.2716 0.00689697 -0.0138001
                      CHANNELS 3 Zrotation Xrotation Yrotation
                      End Site
                      {
                        OFFSET 2.0404 -0.1441 0.0027
                      }
                    }
                  }
                }
                JOINT LeftHandRing1
                {
                  OFFSET 8.5234 0.597198 -2.0164
                  CHANNELS 3 Zrotation Xrotation Yrotation
                  JOINT LeftHandRing2
                  {
                    OFFSET 3.7188 -0.188293 -0.2328
                    CHANNELS 3 Zrotation Xrotation Yrotation
                    JOINT LeftHandRing3
                    {
                      OFFSET 2.1191 -0.106598 -0.1332
                      CHANNELS 3 Zrotation Xrotation Yrotation
                      End Site
                      {
                        OFFSET 1.8737 -0.2304 -0.0886
                      }
                    }
                  }
                }
                JOINT LeftHandPinky1
                {
                  OFFSET 7.9094 -0.601089 -3.4825
                  CHANNELS 3 Zrotation Xrotation Yrotation
                  JOINT LeftHandPinky2
                  {
                    OFFSET 2.2874 -0.477005 -0.6314
                    CHANNELS 3 Zrotation Xrotation Yrotation
                    JOINT LeftHandPinky3
                    {
                      OFFSET 1.6774 -0.349396 -0.4633
                      CHANNELS 3 Zrotation Xrotation Yrotation
                      End Site
                      {
                        OFFSET 1.4888 -0.4091 -0.3416
                      }
                    }
                  }
                }
                JOINT LeftHandThumb1
                {
                  OFFSET 1.833 -1.3875 1.3896
                  CHANNELS 3 Zrotation Xrotation Yrotation
                  JOINT LeftHandThumb2
                  {
                    OFFSET 3.4129 -1.121 2.5732
                    CHANNELS 3 Zrotation Xrotation Yrotation
                    JOINT LeftHandThumb3
                    {
                      OFFSET 2.2474 -0.804199 1.6192
                      CHANNELS 3 Zrotation Xrotation Yrotation
                      End Site
                      {
                        OFFSET 1.6527 -0.5689 1.1317
                      }
                    }
                  }
                }
              }
            }
          }
        }
        JOINT RightShoulder
        {
          OFFSET -2.2086 21.1115 7.2329
          CHANNELS 3 Zrotation Xrotation Yrotation
          JOINT RightArm
          {
            OFFSET -13.1216 3.0287 -4.9007
            CHANNELS 3 Zrotation Xrotation Yrotation
            JOINT RightForeArm
            {
              OFFSET -27.4081 -0.0973053 -0.2375
              CHANNELS 3 Zrotation Xrotation Yrotation
              JOINT RightHand
              {
                OFFSET -22.8641 0.0664063 -0.1369
                CHANNELS 3 Zrotation Xrotation Yrotation
                JOINT RightHandIndex1
                {
                  OFFSET -8.8614 0.774994 2.4612
                  CHANNELS 3 Zrotation Xrotation Yrotation
                  JOINT RightHandIndex2
                  {
                    OFFSET -3.3146 -0.808304 0.5841
                    CHANNELS 3 Zrotation Xrotation Yrotation
                    JOINT RightHandIndex3
                    {
                      OFFSET -2.2628 -0.552002 0.3989
                      CHANNELS 3 Zrotation Xrotation Yrotation
                      End Site
                      {
                        OFFSET -1.6102 -0.4807 0.2612
                      }
                    }
                  }
                }
                JOINT RightHandMiddle1
                {
                  OFFSET -8.9937 0.894989 0.2143
                  CHANNELS 3 Zrotation Xrotation Yrotation
                  JOINT RightHandMiddle2
                  {
                    OFFSET -4.0984 0.0113983 -0.0242
                    CHANNELS 3 Zrotation Xrotation Yrotation
                    JOINT RightHandMiddle3
                    {
                      OFFSET -2.2716 0.00691223 -0.0138001
                      CHANNELS 3 Zrotation Xrotation Yrotation
                      End Site
                      {
                        OFFSET -2.0404 -0.1441 0.0027
                      }
                    }
                  }
                }
                JOINT RightHandRing1
                {
                  OFFSET -8.5234 0.597198 -2.0164
                  CHANNELS 3 Zrotation Xrotation Yrotation
                  JOINT RightHandRing2
                  {
                    OFFSET -3.7188 -0.188309 -0.2328
                    CHANNELS 3 Zrotation Xrotation Yrotation
                    JOINT RightHandRing3
                    {
                      OFFSET -2.1191 -0.106598 -0.1332
                      CHANNELS 3 Zrotation Xrotation Yrotation
                      End Site
                      {
                        OFFSET -1.8737 -0.2304 -0.0886
                      }
                    }
                  }
                }
                JOINT RightHandPinky1
                {
                  OFFSET -7.9094 -0.601105 -3.4825
                  CHANNELS 3 Zrotation Xrotation Yrotation
                  JOINT RightHandPinky2
                  {
                    OFFSET -2.2874 -0.477005 -0.6314
                    CHANNELS 3 Zrotation Xrotation Yrotation
                    JOINT RightHandPinky3
                    {
                      OFFSET -1.6774 -0.349396 -0.4633
                      CHANNELS 3 Zrotation Xrotation Yrotation
                      End Site
                      {
                        OFFSET -1.4888 -0.4091 -0.3416
                      }
                    }
                  }
                }
                JOINT RightHandThumb1
                {
                  OFFSET -1.833 -1.38751 1.3896
                  CHANNELS 3 Zrotation Xrotation Yrotation
                  JOINT RightHandThumb2
                  {
                    OFFSET -3.41299 -1.12099 2.5732
                    CHANNELS 3 Zrotation Xrotation Yrotation
                    JOINT RightHandThumb3
                    {
                      OFFSET -2.24741 -0.804108 1.6192
                      CHANNELS 3 Zrotation Xrotation Yrotation
                      End Site
                      {
                        OFFSET -1.6527 -0.5689 1.1317
                      }
                    }
                  }
                }
              }
            }
          }
        }
      }
    }
  }
  JOINT RightUpLeg
  {
    OFFSET -9.1966 3.8861 -0.7581
    CHANNELS 3 Zrotation Xrotation Yrotation
    JOINT RightLeg
    {
      OFFSET -0.7359 -41.0265 0
      CHANNELS 3 Zrotation Xrotation Yrotation
      JOINT RightFoot
      {
        OFFSET 0 -40.2855 0
        CHANNELS 3 Zrotation Xrotation Yrotation
        JOINT RightToeBase
        {
          OFFSET 0 -5.6122 11.7359
          CHANNELS 3 Zrotation Xrotation Yrotation
          End Site
          {
            OFFSET 0 0 7.8731
          }
        }
      }
    }
  }
  JOINT LeftUpLeg
  {
    OFFSET 9.1965 3.8864 -0.7581
    CHANNELS 3 Zrotation Xrotation Yrotation
    JOINT LeftLeg
    {
      OFFSET 0.7359 -41.0268 0
      CHANNELS 3 Zrotation Xrotation Yrotation
      JOINT LeftFoot
      {
        OFFSET 0 -40.2855 0
        CHANNELS 3 Zrotation Xrotation Yrotation
        JOINT LeftToeBase
        {
          OFFSET 0 -5.6122 11.7359
          CHANNELS 3 Zrotation Xrotation Yrotation
          End Site
          {
            OFFSET 0 0 7.8731
          }
        }
      }
    }
  }
}
MOTION
Frames:	5
Frame Time:	0.0333333
5.84602e-005 68.8428 3.50346 0 0 -0 0 0 -0 0 0 -0 0 0 -0 0 0 -0 0 0 -0 0 0 -0 0 0 -0 0 0 -0 0 0 -0 0 0 -0 0 0 -0 0 0 -0 0 0 -0 -0.0146107 -8.87603e-005 -2.63497e-007 2.99804e-018 -2.42657e-020 -1.42182e-022 0 0 -0 -0.0187562 -0.001176 5.858e-005 5.06224e-018 3.88251e-019 1.21329e-020 0 0 -0 -0.012269 -0.00324817 0.000675346 -1.74678e-018 3.88251e-019 -0 0 0 -0 0 0 -0 0 0 -0 0 0 -0 0 0 -0 0 0 -0 0 0 -0 0 0 -0 0 0 -0 0 0 -0 0 0 -0 0.0149955 -9.10982e-005 2.64101e-007 -9.69331e-018 1.21329e-020 -4.7394e-023 0 0 -0 0.0189956 -0.00119102 -5.96516e-005 -5.41541e-019 0 2.42657e-020 0 0 -0 0.0122698 -0.00324857 -0.000673756 -2.00796e-019 0 -1.94126e-019 0 0 -0 0 0 -0 0 0 -0 3.39842 1.33031 -0.0637918 -5.65207e-008 0.834868 -0.000436188 -3.39935 -2.16518 -0.0642563 -8.89002e-024 -1.18485e-023 -1.48106e-024 -3.39844 1.35642 0.0640283 -3.18788e-007 0.782166 -0.000588827 3.39931 -2.13858 0.0634662 1.1399e-023 0 -0 
-34.5254 -5.39728 32.3092 -7.01671e-015 7.01671e-015 180 -0.146281 -0.0734239 -4.35634 -0.297716 -0.135524 -8.71286 -0.297716 -0.135524 -8.71286 -15.4415 -13.5144 -32.6943 0.270929 -0.0720526 -0.151945 -27.1949 -0.650966 -1.86838 -24.302 6.71935 -25.3701 -28.7054 25.7409 -78.1335 -34.0008 -9.80256e-006 1.48023e-006 -9.95456e-007 5.324e-008 9.24924e-008 -9.95456e-007 5.324e-008 9.24924e-008 -9.95456e-007 5.32399e-008 9.24924e-008 -9.95456e-007 5.324e-008 9.24924e-008 -0.0146036 -8.91797e-005 -1.96071e-007 -9.95443e-007 5.32282e-008 9.25e-008 -9.95456e-007 5.324e-008 9.24924e-008 -0.0187567 -0.00117561 5.61457e-005 -9.95438e-007 5.32264e-008 9.25113e-008 -9.95456e-007 5.324e-008 9.24924e-008 -0.0122523 -0.0032429 0.000679115 -9.95442e-007 5.3239e-008 9.25256e-008 -9.95456e-007 5.324e-008 9.24924e-008 -9.95456e-007 5.324e-008 9.24924e-008 -9.95456e-007 5.32399e-008 9.24924e-008 8.57868 -0.258811 0.406918 54.8195 -24.48 48.1113 27.965 4.82738 14.2655 6.99683 5.51618e-006 -2.06595e-007 1.8185e-006 1.33121e-006 -1.99917e-006 1.2244e-006 -3.49253e-006 2.41344e-007 -1.13406e-006 -2.35846e-006 1.66749e-006 1.8185e-006 1.33121e-006 -1.99917e-006 0.0149827 -9.53702e-005 -1.43149e-006 -5.95854e-007 -4.82344e-006 2.24115e-006 1.8185e-006 1.33121e-006 -1.99917e-006 0.0189844 -0.00119184 -6.35981e-005 -1.13428e-006 -2.35817e-006 1.66789e-006 1.8185e-006 1.33121e-006 -1.99917e-006 0.012267 -0.00325552 -0.000675578 -1.13416e-006 -2.35825e-006 1.66778e-006 1.8185e-006 1.33121e-006 -1.99917e-006 1.2244e-006 -3.49253e-006 2.41344e-007 -1.13406e-006 -2.35846e-006 1.66749e-006 -47.5015 -84.4274 -104.004 125.676 55.1446 -120.801 -7.61346 10.787 -1.71012 3.40423e-006 -5.75555e-007 4.70237e-007 -152.709 -54.5934 -156.122 179.227 88.1407 178.02 8.58761 9.08266 2.40621 8.26795e-007 8.93707e-008 -1.66788e-007 
-34.5254 -5.39728 32.3092 -7.01671e-015 7.01671e-015 180 -0.146281 -0.0734239 -4.35634 -0.297716 -0.135524 -8.71286 -0.297716 -0.135524 -8.71286 -15.4415 -13.5144 -32.6943 0.547382 -0.105618 -0.281779 -27.1949 -0.650966 -1.86838 -24.302 6.71935 -25.3701 -28.304 25.3831 -78.2542 -34.0008 2.08772e-005 1.34155e-006 5.35617e-007 1.17467e-006 1.15416e-006 -1.99182e-006 1.10274e-007 1.80674e-007 -3.48576e-008 -1.30317e-007 1.35701e-006 5.35617e-007 1.17467e-006 1.15416e-006 -0.0146059 -8.36118e-005 8.99735e-007 -3.4845e-008 -1.3049e-007 1.357e-006 5.35617e-007 1.17467e-006 1.15416e-006 -0.0187684 -0.00117508 6.14356e-005 5.34055e-007 1.17438e-006 1.15435e-006 5.35617e-007 1.17467e-006 1.15416e-006 -0.0122789 -0.00324018 0.000678119 -3.48103e-008 -1.30459e-007 1.357e-006 5.35617e-007 1.17467e-006 1.15416e-006 -1.99182e-006 1.10274e-007 1.80674e-007 -3.48576e-008 -1.30317e-007 1.35701e-006 8.57868 -0.258811 0.406918 54.8636 -24.4326 47.9346 28.0376 4.48091 14.5899 6.99684 2.69178e-006 -6.27121e-006 3.18055e-015 7.95139e-016 6.36111e-015 -3.18055e-015 -7.95139e-016 3.18055e-015 4.41391e-032 -7.95139e-016 3.18055e-015 3.18055e-015 7.95139e-016 6.36111e-015 0.0150079 -9.50733e-005 2.05459e-007 -1.76556e-031 1.59028e-015 6.36111e-015 3.18055e-015 7.95139e-016 6.36111e-015 0.0190053 -0.00119071 -5.83411e-005 -1.59028e-015 7.95139e-016 3.18055e-015 3.18055e-015 7.95139e-016 6.36111e-015 0.0122749 -0.00324858 -0.000680544 1.59028e-015 5.56597e-015 3.18055e-015 3.18055e-015 7.95139e-016 6.36111e-015 -3.18055e-015 -7.95139e-016 3.18055e-015 4.41391e-032 -7.95139e-016 3.18055e-015 -47.5019 -84.4275 -104.004 125.676 55.1446 -120.801 -7.61344 10.7871 -1.71013 -1.00311e-005 1.56545e-006 3.65333e-007 -152.709 -54.5934 -156.122 179.227 88.1406 178.02 8.58761 9.08261 2.40622 1.59028e-015 0 1.59028e-015 
-34.5254 -5.39728 32.3092 -7.01671e-015 7.01671e-015 180 -0.146281 -0.0734239 -4.35634 -0.297716 -0.135524 -8.71286 -0.297716 -0.135524 -8.71286 -15.4415 -13.5144 -32.6943 0.823944 -0.139839 -0.411556 -27.1949 -0.650966 -1.86838 -24.302 6.71935 -25.3701 -27.9038 25.0238 -78.372 -34.0008 -1.48258e-005 -6.87896e-006 -1.59028e-015 0 -1.59028e-015 -3.18055e-015 6.36111e-015 1.59028e-015 -4.77083e-015 -3.18055e-015 7.95139e-016 -1.59028e-015 0 -1.59028e-015 -0.0146124 -8.16172e-005 -9.29411e-007 -4.41391e-032 6.36111e-015 3.97569e-016 -1.59028e-015 0 -1.59028e-015 -0.018756 -0.00117386 5.73524e-005 1.59028e-015 0 3.97569e-016 -1.59028e-015 0 -1.59028e-015 -0.0122636 -0.00324437 0.000677503 2.02783e-007 2.76345e-006 2.62301e-007 -1.59028e-015 0 -1.59028e-015 -3.18055e-015 6.36111e-015 1.59028e-015 -4.77083e-015 -3.18055e-015 7.95139e-016 8.57868 -0.258811 0.406918 54.9078 -24.3853 47.7579 28.1124 4.13426 14.9152 6.99682 -1.60854e-006 -3.97825e-006 -6.36111e-015 7.95139e-016 -0 0 1.59028e-015 -0 -1.59028e-015 3.18055e-015 -3.18055e-015 -6.36111e-015 7.95139e-016 -0 0.014983 -9.48175e-005 9.6882e-007 -1.59028e-015 -7.95139e-016 6.36111e-015 -6.36111e-015 7.95139e-016 -0 0.0189897 -0.00118446 -6.20988e-005 -9.54166e-015 -2.14687e-014 -0 -6.36111e-015 7.95139e-016 -0 0.01225 -0.00324479 -0.000678765 1.76556e-031 -1.59028e-015 6.36111e-015 -6.36111e-015 7.95139e-016 -0 0 1.59028e-015 -0 -1.59028e-015 3.18055e-015 -3.18055e-015 -47.5019 -84.4275 -104.004 125.676 55.1446 -120.801 -7.61344 10.7871 -1.71013 -1.00311e-005 1.56545e-006 3.65333e-007 -152.709 -54.5934 -156.122 179.227 88.1406 178.02 8.58761 9.08261 2.40622 1.59028e-015 0 1.59028e-015 
-34.5254 -5.39728 32.3092 -7.01671e-015 7.01671e-015 180 -0.146281 -0.0734239 -4.35634 -0.297716 -0.135524 -8.71286 -0.297716 -0.135524 -8.71286 -15.4415 -13.5144 -32.6943 1.10063 -0.174708 -0.541245 -27.1949 -0.650966 -1.86838 -24.302 6.71935 -25.3701 -27.5048 24.6631 -78.4869 -34.0008 -1.69408e-005 -2.54468e-006 0 0 -1.59028e-015 4.77083e-015 0 -3.97569e-016 3.18055e-015 0 7.95139e-016 0 0 -1.59028e-015 -0.0146052 -9.58391e-005 -3.03244e-007 -0 0 7.95139e-016 0 0 -1.59028e-015 -0.0187673 -0.00117712 5.9459e-005 -1.59028e-015 -3.18055e-015 7.95139e-016 0 0 -1.59028e-015 -0.0122697 -0.00324853 0.000676685 -1.59028e-015 0 7.95139e-016 0 0 -1.59028e-015 4.77083e-015 0 -3.97569e-016 3.18055e-015 0 7.95139e-016 8.57868 -0.258811 0.406918 54.9522 -24.338 47.5811 28.1892 3.78742 15.2414 6.99682 -7.0986e-006 -2.31543e-006 3.18055e-015 7.95139e-015 -3.18055e-015 4.77083e-015 5.56597e-015 3.18055e-015 3.18055e-015 4.77083e-015 -0 3.18055e-015 7.95139e-015 -3.18055e-015 0.0150182 -9.23785e-005 1.94817e-006 2.64834e-031 2.38542e-015 -6.36111e-015 3.18055e-015 7.95139e-015 -3.18055e-015 0.0190017 -0.00119109 -5.91996e-005 -3.18055e-015 7.95139e-016 3.18055e-015 3.18055e-015 7.95139e-015 -3.18055e-015 0.012281 -0.00325444 -0.000672528 -3.18055e-015 2.38542e-015 -0 3.18055e-015 7.95139e-015 -3.18055e-015 4.77083e-015 5.56597e-015 3.18055e-015 3.18055e-015 4.77083e-015 -0 -47.5019 -84.4275 -104.004 125.676 55.1446 -120.801 -7.61344 10.7871 -1.71013 -1.00311e-005 1.56545e-006 3.65333e-007 -152.709 -54.5934 -156.122 179.227 88.1406 178.02 8.58761 9.08261 2.40622 1.59028e-015 0 1.59028e-015 
